<svg id="レイヤー_1" data-name="レイヤー 1" xmlns="http://www.w3.org/2000/svg" viewBox="0 0 321.48 60.41"><path d="M-.52-.18h6V60.16h-6Z" transform="translate(0.52 0.18)"/><path d="M37.85,60.16V-.18h1.32L79.32,46.07V-.18h6V60.16H83.91L44.09,14.47V60.16Z" transform="translate(0.52 0.18)"/><path d="M112.2,48.16l5.12-2.91q5.42,9.44,12.51,9.43a12.39,12.39,0,0,0,5.7-1.34,9.78,9.78,0,0,0,4.06-3.59A8.92,8.92,0,0,0,141,45a9.35,9.35,0,0,0-2.05-5.63q-2.83-3.81-10.34-9.16t-9.39-7.81a13.8,13.8,0,0,1-3.2-8.74,12.68,12.68,0,0,1,1.89-6.79A13.18,13.18,0,0,1,123.21,2,15.94,15.94,0,0,1,130.65.24a16.47,16.47,0,0,1,8,2c2.48,1.33,5.09,3.78,7.86,7.35l-4.93,3.54q-3.41-4.28-5.8-5.63a10.39,10.39,0,0,0-5.23-1.36,8.57,8.57,0,0,0-6,2.1,6.69,6.69,0,0,0-2.31,5.16,8.35,8.35,0,0,0,.82,3.61,13.15,13.15,0,0,0,3,3.81q1.18,1.08,7.79,5.71Q141.7,32,144.6,36.27a15.16,15.16,0,0,1,2.91,8.59,14.2,14.2,0,0,1-5,10.79,17.25,17.25,0,0,1-12.12,4.59,18.52,18.52,0,0,1-10-2.78Q116,54.69,112.2,48.16Z" transform="translate(0.52 0.18)"/><path d="M178.71-.18h12q10.34,0,13.95.9A15.51,15.51,0,0,1,213.12,6a15.06,15.06,0,0,1,3.28,10,15.25,15.25,0,0,1-3.2,10,15.77,15.77,0,0,1-8.82,5.27q-4.09,1-15.34,1h-4.3V60.16h-6Zm6,5.91V26.19l10.21.13q6.2,0,9.06-1.13a9.23,9.23,0,0,0,4.51-3.64,10.06,10.06,0,0,0,1.64-5.63,9.91,9.91,0,0,0-1.64-5.55,9.07,9.07,0,0,0-4.32-3.58c-1.79-.71-4.73-1.06-8.8-1.06Z" transform="translate(0.52 0.18)"/><path d="M257-.18l28.13,60.34h-6.51L269.12,40.3h-26l-9.4,19.86H227L255.51-.18Zm-.76,12.82L245.89,34.48h20.63Z" transform="translate(0.52 0.18)"/><path d="M314.94-.18h6V60.16h-6Z" transform="translate(0.52 0.18)"/></svg>