<svg id="レイヤー_1" data-name="レイヤー 1" xmlns="http://www.w3.org/2000/svg" viewBox="0 0 25.61 25.73"><defs><style>.cls-1{fill:#333;}</style></defs><g id="グループ_338" data-name="グループ 338"><g id="線_145" data-name="線 145"><path class="cls-1" d="M5,6.87H27a1.87,1.87,0,0,0,0-3.74H5A1.87,1.87,0,0,0,5,6.87Z" transform="translate(-3.2 -3.13)"/></g><g id="線_146" data-name="線 146"><path class="cls-1" d="M5,17.49H27a1.87,1.87,0,0,0,0-3.74H5a1.87,1.87,0,0,0,0,3.74Z" transform="translate(-3.2 -3.13)"/></g><g id="パス_263" data-name="パス 263"><path class="cls-1" d="M5,28.87H27a1.87,1.87,0,0,0,0-3.74H5a1.87,1.87,0,0,0,0,3.74Z" transform="translate(-3.2 -3.13)"/></g></g></svg>