<svg id="メモアイコン" xmlns="http://www.w3.org/2000/svg" width="36.027" height="30.826" viewBox="0 0 36.027 30.826">
  <path id="パス_250" data-name="パス 250" d="M59.03,62.581v-6.77l10.9-10.9V36.974H45.065V41.7H47.8a3.6,3.6,0,0,1,0,7.192H45.065v6.985H47.8a3.6,3.6,0,0,1,0,7.192H45.065V67.8H69.934V58.446L65.8,62.581Z" transform="translate(-41.894 -36.974)" fill="red"/>
  <path id="パス_251" data-name="パス 251" d="M1.683,134.708H5.906a1.683,1.683,0,1,0,0-3.366H1.683a1.683,1.683,0,1,0,0,3.366Z" transform="translate(0 -124.702)" fill="red"/>
  <path id="パス_252" data-name="パス 252" d="M7.589,334.507a1.683,1.683,0,0,0-1.683-1.683H1.683a1.683,1.683,0,0,0,0,3.366H5.906a1.683,1.683,0,0,0,1.683-1.683Z" transform="translate(0 -312.007)" fill="red"/>
  <path id="パス_253" data-name="パス 253" d="M434.369,134.255l-1.272-1.271a1.975,1.975,0,0,0-2.793,0l-1.189,1.19,4.064,4.064,1.19-1.189A1.976,1.976,0,0,0,434.369,134.255Z" transform="translate(-398.92 -125.691)" fill="red"/>
  <path id="パス_254" data-name="パス 254" d="M270.716,183.329v4.064h4.064l10.037-10.037-4.064-4.064Z" transform="translate(-251.667 -163.7)" fill="red"/>
</svg>
