<svg xmlns="http://www.w3.org/2000/svg" width="22.012" height="24.794" viewBox="0 0 22.012 24.794">
  <g id="ゴミ箱のアイコン素材" transform="translate(0.001)">
    <path id="パス_235" data-name="パス 235" d="M67.287,192.648a5.29,5.29,0,0,0,.255,1.741,1.809,1.809,0,0,0,1.274,1.273,2.112,2.112,0,0,0,.393.039H82.64a.689.689,0,0,0,.094,0c1.281-.082,1.8-1.415,1.8-3.05l.539-13.042H66.748ZM79.57,182.515h2.551v10.279H79.57Zm-4.933,0h2.551v10.279H74.637Zm-4.933,0h2.555v10.279H69.7Z" transform="translate(-64.907 -170.908)" fill="#4b4b4b"/>
    <path id="パス_236" data-name="パス 236" d="M45.183,4.323c0-.1.012-.2.012-.295V3.757A3.763,3.763,0,0,0,41.437,0H38.013a3.763,3.763,0,0,0-3.758,3.758v.271c0,.1.008.2.016.295h-5.55V7.354H50.733V4.323Zm-2.347-.295a1.441,1.441,0,0,1-.031.295h-6.16a1.441,1.441,0,0,1-.031-.295V3.757a1.4,1.4,0,0,1,1.4-1.4h3.424a1.4,1.4,0,0,1,1.4,1.4Z" transform="translate(-28.722 0.001)" fill="#4b4b4b"/>
  </g>
</svg>
