<svg xmlns="http://www.w3.org/2000/svg" width="27.367" height="30.825" viewBox="0 0 27.367 30.825">
  <g id="icon_delete" transform="translate(0.001 -0.001)">
    <path id="パス_235" data-name="パス 235" d="M67.418,195.82a6.577,6.577,0,0,0,.318,2.165,2.249,2.249,0,0,0,1.583,1.583,2.625,2.625,0,0,0,.489.049h16.7a.863.863,0,0,0,.117,0c1.593-.1,2.243-1.759,2.243-3.792l.67-16.214H66.748Zm15.271-12.6H85.86V196H82.689Zm-6.133,0h3.172V196H76.556Zm-6.133,0H73.6V196H70.423Z" transform="translate(-64.459 -168.793)" fill="red"/>
    <path id="パス_236" data-name="パス 236" d="M49.187,5.375c0-.122.015-.244.015-.367V4.671A4.678,4.678,0,0,0,44.53,0H40.273A4.678,4.678,0,0,0,35.6,4.671v.337c0,.122.01.245.02.367h-6.9V9.142H56.087V5.375Zm-2.918-.367a1.792,1.792,0,0,1-.039.367H38.573a1.792,1.792,0,0,1-.039-.367V4.671a1.744,1.744,0,0,1,1.74-1.74H44.53a1.74,1.74,0,0,1,1.74,1.74Z" transform="translate(-28.721 0.001)" fill="red"/>
  </g>
</svg>
