<svg xmlns="http://www.w3.org/2000/svg" width="24.794" height="24.794" viewBox="0 0 24.794 24.794">
  <g id="鉛筆のアイコン素材" transform="translate(0)">
    <path id="パス_237" data-name="パス 237" d="M24.529,4.274,20.52.265a.9.9,0,0,0-1.279,0L2.314,16.522a.9.9,0,0,0-.226.376L.041,23.625A.9.9,0,0,0,1.17,24.754l6.943-2.113h0L24.529,5.553A.9.9,0,0,0,24.529,4.274ZM3.077,22.522l-.8-.8,1.18-3.879L5.73,19.064l1.225,2.277ZM21.985,3.634,7.563,18.148l-.916-.916L21.161,2.809l.824.824Z" transform="translate(-0.001 0)" fill="#4b4b4b"/>
  </g>
</svg>
