<svg id="鉛筆のアイコン素材" xmlns="http://www.w3.org/2000/svg" width="30.824" height="30.824" viewBox="0 0 30.824 30.824">
  <path id="パス_237" data-name="パス 237" d="M30.5,5.314,25.511.33a1.124,1.124,0,0,0-1.59,0L2.877,20.54a1.124,1.124,0,0,0-.281.468L.051,29.371a1.124,1.124,0,0,0,1.4,1.4l8.632-2.627h0L30.5,6.9A1.124,1.124,0,0,0,30.5,5.314ZM3.825,28l-1-1,1.467-4.823L7.124,23.7l1.523,2.83ZM27.332,4.518,9.4,22.561,8.264,21.422,26.308,3.492l1.024,1.024Z" transform="translate(-0.001 0)" fill="#4b4b4b"/>
</svg>
